<svg width="64" height="64" viewBox="0 0 64 64" fill="none" xmlns="http://www.w3.org/2000/svg">
<defs>
<linearGradient id="brain-gradient" x1="0%" y1="0%" x2="100%" y2="100%">
<stop offset="0%" style="stop-color:#667eea;stop-opacity:1" />
<stop offset="100%" style="stop-color:#764ba2;stop-opacity:1" />
</linearGradient>
</defs>
<rect width="64" height="64" rx="16" fill="url(#brain-gradient)"/>
<path d="M20 24c-2.2 0-4 1.8-4 4v8c0 2.2 1.8 4 4 4h4v8c0 2.2 1.8 4 4 4h8c2.2 0 4-1.8 4-4v-4h4c2.2 0 4-1.8 4-4v-8c0-2.2-1.8-4-4-4h-4v-8c0-2.2-1.8-4-4-4h-8c-2.2 0-4 1.8-4 4v8h-4z" fill="white" opacity="0.9"/>
<circle cx="28" cy="28" r="3" fill="url(#brain-gradient)"/>
<circle cx="36" cy="36" r="2" fill="url(#brain-gradient)"/>
<circle cx="44" cy="28" r="2" fill="url(#brain-gradient)"/>
<path d="M28 31l8 5m0-8l-8 5" stroke="white" stroke-width="1.5" opacity="0.7"/>
</svg>